<?xml version="1.0" encoding="utf-8" standalone="no"?>
<!DOCTYPE svg PUBLIC "-//W3C//DTD SVG 1.1//EN"
  "http://www.w3.org/Graphics/SVG/1.1/DTD/svg11.dtd">
<!-- Created with matplotlib (https://matplotlib.org/) -->
<svg height="375.12pt" version="1.1" viewBox="0 0 716.4 375.12" width="716.4pt" xmlns="http://www.w3.org/2000/svg" xmlns:xlink="http://www.w3.org/1999/xlink">
 <defs>
  <style type="text/css">
*{stroke-linecap:butt;stroke-linejoin:round;}
  </style>
 </defs>
 <g id="figure_1">
  <g id="patch_1">
   <path d="M 0 375.12 
L 716.4 375.12 
L 716.4 0 
L 0 0 
z
" style="fill:#ffffff;"/>
  </g>
  <g id="axes_1">
   <g id="patch_2">
    <path d="M 89.55 333.8568 
L 644.76 333.8568 
L 644.76 45.0144 
L 89.55 45.0144 
z
" style="fill:#ffffff;"/>
   </g>
   <g id="PolyCollection_1">
    <path clip-path="url(#p928bd21597)" d="M 114.786818 333.8568 
L 114.786818 333.8568 
L 121.60758 333.8568 
L 128.428342 333.8568 
L 135.249103 333.8568 
L 142.069865 333.8568 
L 148.890627 333.8568 
L 155.711388 333.8568 
L 162.53215 333.8568 
L 169.352912 333.8568 
L 176.173673 333.8568 
L 182.994435 333.8568 
L 189.815197 333.8568 
L 196.635958 333.8568 
L 203.45672 333.8568 
L 210.277482 333.8568 
L 217.098243 333.8568 
L 223.919005 333.8568 
L 230.739767 333.8568 
L 237.560528 333.8568 
L 244.38129 333.8568 
L 251.202052 333.8568 
L 258.022813 333.8568 
L 264.843575 333.8568 
L 271.664337 333.8568 
L 278.485098 333.8568 
L 285.30586 333.8568 
L 292.126622 333.8568 
L 298.947383 333.8568 
L 305.768145 333.8568 
L 312.588907 333.8568 
L 319.409668 333.8568 
L 326.23043 333.8568 
L 333.051192 333.8568 
L 339.871953 333.8568 
L 346.692715 333.8568 
L 353.513477 333.8568 
L 360.334238 333.8568 
L 367.155 333.8568 
L 373.975762 333.8568 
L 380.796523 333.8568 
L 387.617285 333.8568 
L 394.438047 333.8568 
L 401.258808 333.8568 
L 408.07957 333.8568 
L 414.900332 333.8568 
L 421.721093 333.8568 
L 428.541855 333.8568 
L 435.362617 333.8568 
L 442.183378 333.8568 
L 449.00414 333.8568 
L 455.824902 333.8568 
L 462.645663 333.8568 
L 469.466425 333.8568 
L 476.287187 333.8568 
L 483.107948 333.8568 
L 489.92871 333.8568 
L 496.749472 333.8568 
L 503.570233 333.8568 
L 510.390995 333.8568 
L 517.211757 333.8568 
L 524.032518 333.8568 
L 530.85328 333.8568 
L 537.674042 333.8568 
L 544.494803 333.8568 
L 551.315565 333.8568 
L 558.136327 333.8568 
L 564.957088 333.8568 
L 571.77785 333.8568 
L 578.598612 333.8568 
L 585.419373 333.8568 
L 592.240135 333.8568 
L 599.060897 333.8568 
L 605.881658 333.8568 
L 612.70242 333.8568 
L 619.523182 333.8568 
L 619.523182 333.8568 
L 619.523182 333.8568 
L 612.70242 333.8568 
L 605.881658 333.8568 
L 599.060897 333.8568 
L 592.240135 333.8568 
L 585.419373 333.8568 
L 578.598612 333.8568 
L 571.77785 333.8568 
L 564.957088 333.8568 
L 558.136327 333.8568 
L 551.315565 333.8568 
L 544.494803 333.8568 
L 537.674042 333.8568 
L 530.85328 333.8568 
L 524.032518 333.8568 
L 517.211757 333.8568 
L 510.390995 333.8568 
L 503.570233 333.8568 
L 496.749472 333.8568 
L 489.92871 333.8568 
L 483.107948 333.8568 
L 476.287187 333.8568 
L 469.466425 333.8568 
L 462.645663 333.8568 
L 455.824902 333.8568 
L 449.00414 333.8568 
L 442.183378 333.8568 
L 435.362617 333.8568 
L 428.541855 333.8568 
L 421.721093 333.8568 
L 414.900332 333.8568 
L 408.07957 333.8568 
L 401.258808 333.8568 
L 394.438047 333.8568 
L 387.617285 333.8568 
L 380.796523 333.8568 
L 373.975762 333.8568 
L 367.155 333.8568 
L 360.334238 333.8568 
L 353.513477 333.8568 
L 346.692715 333.8568 
L 339.871953 333.8568 
L 333.051192 333.8568 
L 326.23043 333.8568 
L 319.409668 333.8568 
L 312.588907 333.8568 
L 305.768145 333.8568 
L 298.947383 333.8568 
L 292.126622 333.8568 
L 285.30586 333.8568 
L 278.485098 333.8568 
L 271.664337 333.8568 
L 264.843575 333.8568 
L 258.022813 333.8568 
L 251.202052 333.8568 
L 244.38129 333.8568 
L 237.560528 333.8568 
L 230.739767 333.8568 
L 223.919005 333.8568 
L 217.098243 333.8568 
L 210.277482 333.8568 
L 203.45672 333.8568 
L 196.635958 333.8568 
L 189.815197 333.8568 
L 182.994435 333.8568 
L 176.173673 333.8568 
L 169.352912 333.8568 
L 162.53215 333.8568 
L 155.711388 333.8568 
L 148.890627 333.8568 
L 142.069865 333.8568 
L 135.249103 333.8568 
L 128.428342 333.8568 
L 121.60758 333.8568 
L 114.786818 333.8568 
z
" style="fill:#424242;"/>
   </g>
   <g id="PolyCollection_2">
    <path clip-path="url(#p928bd21597)" d="M 114.786818 333.845796 
L 114.786818 333.8568 
L 121.60758 333.8568 
L 128.428342 333.8568 
L 135.249103 333.8568 
L 142.069865 333.8568 
L 148.890627 333.8568 
L 155.711388 333.8568 
L 162.53215 333.8568 
L 169.352912 333.8568 
L 176.173673 333.8568 
L 182.994435 333.8568 
L 189.815197 333.8568 
L 196.635958 333.8568 
L 203.45672 333.8568 
L 210.277482 333.8568 
L 217.098243 333.8568 
L 223.919005 333.8568 
L 230.739767 333.8568 
L 237.560528 333.8568 
L 244.38129 333.8568 
L 251.202052 333.8568 
L 258.022813 333.8568 
L 264.843575 333.8568 
L 271.664337 333.8568 
L 278.485098 333.8568 
L 285.30586 333.8568 
L 292.126622 333.8568 
L 298.947383 333.8568 
L 305.768145 333.8568 
L 312.588907 333.8568 
L 319.409668 333.8568 
L 326.23043 333.8568 
L 333.051192 333.8568 
L 339.871953 333.8568 
L 346.692715 333.8568 
L 353.513477 333.8568 
L 360.334238 333.8568 
L 367.155 333.8568 
L 373.975762 333.8568 
L 380.796523 333.8568 
L 387.617285 333.8568 
L 394.438047 333.8568 
L 401.258808 333.8568 
L 408.07957 333.8568 
L 414.900332 333.8568 
L 421.721093 333.8568 
L 428.541855 333.8568 
L 435.362617 333.8568 
L 442.183378 333.8568 
L 449.00414 333.8568 
L 455.824902 333.8568 
L 462.645663 333.8568 
L 469.466425 333.8568 
L 476.287187 333.8568 
L 483.107948 333.8568 
L 489.92871 333.8568 
L 496.749472 333.8568 
L 503.570233 333.8568 
L 510.390995 333.8568 
L 517.211757 333.8568 
L 524.032518 333.8568 
L 530.85328 333.8568 
L 537.674042 333.8568 
L 544.494803 333.8568 
L 551.315565 333.8568 
L 558.136327 333.8568 
L 564.957088 333.8568 
L 571.77785 333.8568 
L 578.598612 333.8568 
L 585.419373 333.8568 
L 592.240135 333.8568 
L 599.060897 333.8568 
L 605.881658 333.8568 
L 612.70242 333.8568 
L 619.523182 333.8568 
L 619.523182 317.681626 
L 619.523182 317.681626 
L 612.70242 305.415452 
L 605.881658 295.649828 
L 599.060897 269.128594 
L 592.240135 237.160617 
L 585.419373 201.201114 
L 578.598612 184.192423 
L 571.77785 178.819954 
L 564.957088 177.664584 
L 558.136327 168.859018 
L 551.315565 125.282328 
L 544.494803 104.260103 
L 537.674042 103.176256 
L 530.85328 93.726983 
L 524.032518 86.882794 
L 517.211757 89.254052 
L 510.390995 98.477753 
L 503.570233 110.732923 
L 496.749472 120.495796 
L 489.92871 146.7667 
L 483.107948 171.99227 
L 476.287187 196.948253 
L 469.466425 212.958375 
L 462.645663 218.218057 
L 455.824902 218.828753 
L 449.00414 227.593056 
L 442.183378 271.161494 
L 435.362617 292.189221 
L 428.541855 293.31158 
L 421.721093 303.082705 
L 414.900332 311.464637 
L 408.07957 311.291331 
L 401.258808 310.930966 
L 394.438047 310.94197 
L 387.617285 310.936468 
L 380.796523 311.184047 
L 373.975762 317.926454 
L 367.155 328.929974 
L 360.334238 329.928543 
L 353.513477 330.041329 
L 346.692715 330.586004 
L 339.871953 330.475968 
L 333.051192 330.132108 
L 326.23043 330.132108 
L 319.409668 330.132108 
L 312.588907 330.132108 
L 305.768145 330.349428 
L 298.947383 332.629908 
L 292.126622 333.342385 
L 285.30586 333.342385 
L 278.485098 333.350638 
L 271.664337 333.353389 
L 264.843575 333.270863 
L 258.022813 333.270863 
L 251.202052 333.270863 
L 244.38129 333.270863 
L 237.560528 333.270863 
L 230.739767 333.422161 
L 223.919005 333.774274 
L 217.098243 333.76327 
L 210.277482 333.76327 
L 203.45672 333.76327 
L 196.635958 333.76327 
L 189.815197 333.76327 
L 182.994435 333.76327 
L 176.173673 333.76327 
L 169.352912 333.76327 
L 162.53215 333.76327 
L 155.711388 333.845796 
L 148.890627 333.845796 
L 142.069865 333.845796 
L 135.249103 333.845796 
L 128.428342 333.845796 
L 121.60758 333.845796 
L 114.786818 333.845796 
z
" style="fill:#b6311c;"/>
   </g>
   <g id="PolyCollection_3">
    <path clip-path="url(#p928bd21597)" d="M 114.786818 333.845796 
L 114.786818 333.845796 
L 121.60758 333.845796 
L 128.428342 333.845796 
L 135.249103 333.845796 
L 142.069865 333.845796 
L 148.890627 333.845796 
L 155.711388 333.845796 
L 162.53215 333.76327 
L 169.352912 333.76327 
L 176.173673 333.76327 
L 182.994435 333.76327 
L 189.815197 333.76327 
L 196.635958 333.76327 
L 203.45672 333.76327 
L 210.277482 333.76327 
L 217.098243 333.76327 
L 223.919005 333.774274 
L 230.739767 333.422161 
L 237.560528 333.270863 
L 244.38129 333.270863 
L 251.202052 333.270863 
L 258.022813 333.270863 
L 264.843575 333.270863 
L 271.664337 333.353389 
L 278.485098 333.350638 
L 285.30586 333.342385 
L 292.126622 333.342385 
L 298.947383 332.629908 
L 305.768145 330.349428 
L 312.588907 330.132108 
L 319.409668 330.132108 
L 326.23043 330.132108 
L 333.051192 330.132108 
L 339.871953 330.475968 
L 346.692715 330.586004 
L 353.513477 330.041329 
L 360.334238 329.928543 
L 367.155 328.929974 
L 373.975762 317.926454 
L 380.796523 311.184047 
L 387.617285 310.936468 
L 394.438047 310.94197 
L 401.258808 310.930966 
L 408.07957 311.291331 
L 414.900332 311.464637 
L 421.721093 303.082705 
L 428.541855 293.31158 
L 435.362617 292.189221 
L 442.183378 271.161494 
L 449.00414 227.593056 
L 455.824902 218.828753 
L 462.645663 218.218057 
L 469.466425 212.958375 
L 476.287187 196.948253 
L 483.107948 171.99227 
L 489.92871 146.7667 
L 496.749472 120.495796 
L 503.570233 110.732923 
L 510.390995 98.477753 
L 517.211757 89.254052 
L 524.032518 86.882794 
L 530.85328 93.726983 
L 537.674042 103.176256 
L 544.494803 104.260103 
L 551.315565 125.282328 
L 558.136327 168.859018 
L 564.957088 177.664584 
L 571.77785 178.819954 
L 578.598612 184.192423 
L 585.419373 201.201114 
L 592.240135 237.160617 
L 599.060897 269.128594 
L 605.881658 295.649828 
L 612.70242 305.415452 
L 619.523182 317.681626 
L 619.523182 58.7688 
L 619.523182 58.7688 
L 612.70242 58.7688 
L 605.881658 58.7688 
L 599.060897 58.7688 
L 592.240135 58.7688 
L 585.419373 58.7688 
L 578.598612 58.7688 
L 571.77785 58.7688 
L 564.957088 58.7688 
L 558.136327 58.7688 
L 551.315565 58.7688 
L 544.494803 58.774302 
L 537.674042 58.812814 
L 530.85328 59.134667 
L 524.032518 60.889728 
L 517.211757 65.368161 
L 510.390995 74.943974 
L 503.570233 87.210148 
L 496.749472 96.975772 
L 489.92871 123.497006 
L 483.107948 155.464983 
L 476.287187 191.424486 
L 469.466425 208.433177 
L 462.645663 213.805646 
L 455.824902 214.961016 
L 449.00414 223.766582 
L 442.183378 267.343272 
L 435.362617 288.370999 
L 428.541855 289.493358 
L 421.721093 299.264484 
L 414.900332 307.863735 
L 408.07957 309.970909 
L 401.258808 310.323022 
L 394.438047 310.334025 
L 387.617285 310.336776 
L 380.796523 310.587106 
L 373.975762 317.329513 
L 367.155 328.333033 
L 360.334238 329.331602 
L 353.513477 329.444388 
L 346.692715 329.989063 
L 339.871953 330.030326 
L 333.051192 330.038579 
L 326.23043 330.038579 
L 319.409668 330.038579 
L 312.588907 330.038579 
L 305.768145 330.255898 
L 298.947383 332.536378 
L 292.126622 333.248856 
L 285.30586 333.248856 
L 278.485098 333.257108 
L 271.664337 333.259859 
L 264.843575 333.259859 
L 258.022813 333.259859 
L 251.202052 333.259859 
L 244.38129 333.259859 
L 237.560528 333.259859 
L 230.739767 333.411157 
L 223.919005 333.76327 
L 217.098243 333.76327 
L 210.277482 333.76327 
L 203.45672 333.76327 
L 196.635958 333.76327 
L 189.815197 333.76327 
L 182.994435 333.76327 
L 176.173673 333.76327 
L 169.352912 333.76327 
L 162.53215 333.76327 
L 155.711388 333.845796 
L 148.890627 333.845796 
L 142.069865 333.845796 
L 135.249103 333.845796 
L 128.428342 333.845796 
L 121.60758 333.845796 
L 114.786818 333.845796 
z
" style="fill:#276ba2;"/>
   </g>
   <g id="PolyCollection_4">
    <path clip-path="url(#p928bd21597)" d="M 114.786818 58.7688 
L 114.786818 333.845796 
L 121.60758 333.845796 
L 128.428342 333.845796 
L 135.249103 333.845796 
L 142.069865 333.845796 
L 148.890627 333.845796 
L 155.711388 333.845796 
L 162.53215 333.76327 
L 169.352912 333.76327 
L 176.173673 333.76327 
L 182.994435 333.76327 
L 189.815197 333.76327 
L 196.635958 333.76327 
L 203.45672 333.76327 
L 210.277482 333.76327 
L 217.098243 333.76327 
L 223.919005 333.76327 
L 230.739767 333.411157 
L 237.560528 333.259859 
L 244.38129 333.259859 
L 251.202052 333.259859 
L 258.022813 333.259859 
L 264.843575 333.259859 
L 271.664337 333.259859 
L 278.485098 333.257108 
L 285.30586 333.248856 
L 292.126622 333.248856 
L 298.947383 332.536378 
L 305.768145 330.255898 
L 312.588907 330.038579 
L 319.409668 330.038579 
L 326.23043 330.038579 
L 333.051192 330.038579 
L 339.871953 330.030326 
L 346.692715 329.989063 
L 353.513477 329.444388 
L 360.334238 329.331602 
L 367.155 328.333033 
L 373.975762 317.329513 
L 380.796523 310.587106 
L 387.617285 310.336776 
L 394.438047 310.334025 
L 401.258808 310.323022 
L 408.07957 309.970909 
L 414.900332 307.863735 
L 421.721093 299.264484 
L 428.541855 289.493358 
L 435.362617 288.370999 
L 442.183378 267.343272 
L 449.00414 223.766582 
L 455.824902 214.961016 
L 462.645663 213.805646 
L 469.466425 208.433177 
L 476.287187 191.424486 
L 483.107948 155.464983 
L 489.92871 123.497006 
L 496.749472 96.975772 
L 503.570233 87.210148 
L 510.390995 74.943974 
L 517.211757 65.368161 
L 524.032518 60.889728 
L 530.85328 59.134667 
L 537.674042 58.812814 
L 544.494803 58.774302 
L 551.315565 58.7688 
L 558.136327 58.7688 
L 564.957088 58.7688 
L 571.77785 58.7688 
L 578.598612 58.7688 
L 585.419373 58.7688 
L 592.240135 58.7688 
L 599.060897 58.7688 
L 605.881658 58.7688 
L 612.70242 58.7688 
L 619.523182 58.7688 
L 619.523182 58.7688 
L 619.523182 58.7688 
L 612.70242 58.7688 
L 605.881658 58.7688 
L 599.060897 58.7688 
L 592.240135 58.7688 
L 585.419373 58.7688 
L 578.598612 58.7688 
L 571.77785 58.7688 
L 564.957088 58.7688 
L 558.136327 58.7688 
L 551.315565 58.7688 
L 544.494803 58.7688 
L 537.674042 58.7688 
L 530.85328 58.7688 
L 524.032518 58.7688 
L 517.211757 58.7688 
L 510.390995 58.7688 
L 503.570233 58.7688 
L 496.749472 58.7688 
L 489.92871 58.7688 
L 483.107948 58.7688 
L 476.287187 58.7688 
L 469.466425 58.7688 
L 462.645663 58.7688 
L 455.824902 58.7688 
L 449.00414 58.7688 
L 442.183378 58.7688 
L 435.362617 58.7688 
L 428.541855 58.7688 
L 421.721093 58.7688 
L 414.900332 58.7688 
L 408.07957 58.7688 
L 401.258808 58.7688 
L 394.438047 58.7688 
L 387.617285 58.7688 
L 380.796523 58.7688 
L 373.975762 58.7688 
L 367.155 58.7688 
L 360.334238 58.7688 
L 353.513477 58.7688 
L 346.692715 58.7688 
L 339.871953 58.7688 
L 333.051192 58.7688 
L 326.23043 58.7688 
L 319.409668 58.7688 
L 312.588907 58.7688 
L 305.768145 58.7688 
L 298.947383 58.7688 
L 292.126622 58.7688 
L 285.30586 58.7688 
L 278.485098 58.7688 
L 271.664337 58.7688 
L 264.843575 58.7688 
L 258.022813 58.7688 
L 251.202052 58.7688 
L 244.38129 58.7688 
L 237.560528 58.7688 
L 230.739767 58.7688 
L 223.919005 58.7688 
L 217.098243 58.7688 
L 210.277482 58.7688 
L 203.45672 58.7688 
L 196.635958 58.7688 
L 189.815197 58.7688 
L 182.994435 58.7688 
L 176.173673 58.7688 
L 169.352912 58.7688 
L 162.53215 58.7688 
L 155.711388 58.7688 
L 148.890627 58.7688 
L 142.069865 58.7688 
L 135.249103 58.7688 
L 128.428342 58.7688 
L 121.60758 58.7688 
L 114.786818 58.7688 
z
" style="fill:#299727;"/>
   </g>
   <g id="matplotlib.axis_1">
    <g id="xtick_1">
     <g id="line2d_1">
      <defs>
       <path d="M 0 0 
L 0 3.5 
" id="m56cde3ddc9" style="stroke:#000000;stroke-width:0.8;"/>
      </defs>
      <g>
       <use style="stroke:#000000;stroke-width:0.8;" x="114.786818" xlink:href="#m56cde3ddc9" y="333.8568"/>
      </g>
     </g>
     <g id="text_1">
      <!-- 0 -->
      <defs>
       <path d="M 31.78125 66.40625 
Q 24.171875 66.40625 20.328125 58.90625 
Q 16.5 51.421875 16.5 36.375 
Q 16.5 21.390625 20.328125 13.890625 
Q 24.171875 6.390625 31.78125 6.390625 
Q 39.453125 6.390625 43.28125 13.890625 
Q 47.125 21.390625 47.125 36.375 
Q 47.125 51.421875 43.28125 58.90625 
Q 39.453125 66.40625 31.78125 66.40625 
z
M 31.78125 74.21875 
Q 44.046875 74.21875 50.515625 64.515625 
Q 56.984375 54.828125 56.984375 36.375 
Q 56.984375 17.96875 50.515625 8.265625 
Q 44.046875 -1.421875 31.78125 -1.421875 
Q 19.53125 -1.421875 13.0625 8.265625 
Q 6.59375 17.96875 6.59375 36.375 
Q 6.59375 54.828125 13.0625 64.515625 
Q 19.53125 74.21875 31.78125 74.21875 
z
" id="DejaVuSans-48"/>
      </defs>
      <g transform="translate(111.605568 348.455238)scale(0.1 -0.1)">
       <use xlink:href="#DejaVuSans-48"/>
      </g>
     </g>
    </g>
    <g id="xtick_2">
     <g id="line2d_2">
      <g>
       <use style="stroke:#000000;stroke-width:0.8;" x="182.994435" xlink:href="#m56cde3ddc9" y="333.8568"/>
      </g>
     </g>
     <g id="text_2">
      <!-- 10 -->
      <defs>
       <path d="M 12.40625 8.296875 
L 28.515625 8.296875 
L 28.515625 63.921875 
L 10.984375 60.40625 
L 10.984375 69.390625 
L 28.421875 72.90625 
L 38.28125 72.90625 
L 38.28125 8.296875 
L 54.390625 8.296875 
L 54.390625 0 
L 12.40625 0 
z
" id="DejaVuSans-49"/>
      </defs>
      <g transform="translate(176.631935 348.455238)scale(0.1 -0.1)">
       <use xlink:href="#DejaVuSans-49"/>
       <use x="63.623047" xlink:href="#DejaVuSans-48"/>
      </g>
     </g>
    </g>
    <g id="xtick_3">
     <g id="line2d_3">
      <g>
       <use style="stroke:#000000;stroke-width:0.8;" x="251.202052" xlink:href="#m56cde3ddc9" y="333.8568"/>
      </g>
     </g>
     <g id="text_3">
      <!-- 20 -->
      <defs>
       <path d="M 19.1875 8.296875 
L 53.609375 8.296875 
L 53.609375 0 
L 7.328125 0 
L 7.328125 8.296875 
Q 12.9375 14.109375 22.625 23.890625 
Q 32.328125 33.6875 34.8125 36.53125 
Q 39.546875 41.84375 41.421875 45.53125 
Q 43.3125 49.21875 43.3125 52.78125 
Q 43.3125 58.59375 39.234375 62.25 
Q 35.15625 65.921875 28.609375 65.921875 
Q 23.96875 65.921875 18.8125 64.3125 
Q 13.671875 62.703125 7.8125 59.421875 
L 7.8125 69.390625 
Q 13.765625 71.78125 18.9375 73 
Q 24.125 74.21875 28.421875 74.21875 
Q 39.75 74.21875 46.484375 68.546875 
Q 53.21875 62.890625 53.21875 53.421875 
Q 53.21875 48.921875 51.53125 44.890625 
Q 49.859375 40.875 45.40625 35.40625 
Q 44.1875 33.984375 37.640625 27.21875 
Q 31.109375 20.453125 19.1875 8.296875 
z
" id="DejaVuSans-50"/>
      </defs>
      <g transform="translate(244.839552 348.455238)scale(0.1 -0.1)">
       <use xlink:href="#DejaVuSans-50"/>
       <use x="63.623047" xlink:href="#DejaVuSans-48"/>
      </g>
     </g>
    </g>
    <g id="xtick_4">
     <g id="line2d_4">
      <g>
       <use style="stroke:#000000;stroke-width:0.8;" x="319.409668" xlink:href="#m56cde3ddc9" y="333.8568"/>
      </g>
     </g>
     <g id="text_4">
      <!-- 30 -->
      <defs>
       <path d="M 40.578125 39.3125 
Q 47.65625 37.796875 51.625 33 
Q 55.609375 28.21875 55.609375 21.1875 
Q 55.609375 10.40625 48.1875 4.484375 
Q 40.765625 -1.421875 27.09375 -1.421875 
Q 22.515625 -1.421875 17.65625 -0.515625 
Q 12.796875 0.390625 7.625 2.203125 
L 7.625 11.71875 
Q 11.71875 9.328125 16.59375 8.109375 
Q 21.484375 6.890625 26.8125 6.890625 
Q 36.078125 6.890625 40.9375 10.546875 
Q 45.796875 14.203125 45.796875 21.1875 
Q 45.796875 27.640625 41.28125 31.265625 
Q 36.765625 34.90625 28.71875 34.90625 
L 20.21875 34.90625 
L 20.21875 43.015625 
L 29.109375 43.015625 
Q 36.375 43.015625 40.234375 45.921875 
Q 44.09375 48.828125 44.09375 54.296875 
Q 44.09375 59.90625 40.109375 62.90625 
Q 36.140625 65.921875 28.71875 65.921875 
Q 24.65625 65.921875 20.015625 65.03125 
Q 15.375 64.15625 9.8125 62.3125 
L 9.8125 71.09375 
Q 15.4375 72.65625 20.34375 73.4375 
Q 25.25 74.21875 29.59375 74.21875 
Q 40.828125 74.21875 47.359375 69.109375 
Q 53.90625 64.015625 53.90625 55.328125 
Q 53.90625 49.265625 50.4375 45.09375 
Q 46.96875 40.921875 40.578125 39.3125 
z
" id="DejaVuSans-51"/>
      </defs>
      <g transform="translate(313.047168 348.455238)scale(0.1 -0.1)">
       <use xlink:href="#DejaVuSans-51"/>
       <use x="63.623047" xlink:href="#DejaVuSans-48"/>
      </g>
     </g>
    </g>
    <g id="xtick_5">
     <g id="line2d_5">
      <g>
       <use style="stroke:#000000;stroke-width:0.8;" x="387.617285" xlink:href="#m56cde3ddc9" y="333.8568"/>
      </g>
     </g>
     <g id="text_5">
      <!-- 40 -->
      <defs>
       <path d="M 37.796875 64.3125 
L 12.890625 25.390625 
L 37.796875 25.390625 
z
M 35.203125 72.90625 
L 47.609375 72.90625 
L 47.609375 25.390625 
L 58.015625 25.390625 
L 58.015625 17.1875 
L 47.609375 17.1875 
L 47.609375 0 
L 37.796875 0 
L 37.796875 17.1875 
L 4.890625 17.1875 
L 4.890625 26.703125 
z
" id="DejaVuSans-52"/>
      </defs>
      <g transform="translate(381.254785 348.455238)scale(0.1 -0.1)">
       <use xlink:href="#DejaVuSans-52"/>
       <use x="63.623047" xlink:href="#DejaVuSans-48"/>
      </g>
     </g>
    </g>
    <g id="xtick_6">
     <g id="line2d_6">
      <g>
       <use style="stroke:#000000;stroke-width:0.8;" x="455.824902" xlink:href="#m56cde3ddc9" y="333.8568"/>
      </g>
     </g>
     <g id="text_6">
      <!-- 50 -->
      <defs>
       <path d="M 10.796875 72.90625 
L 49.515625 72.90625 
L 49.515625 64.59375 
L 19.828125 64.59375 
L 19.828125 46.734375 
Q 21.96875 47.46875 24.109375 47.828125 
Q 26.265625 48.1875 28.421875 48.1875 
Q 40.625 48.1875 47.75 41.5 
Q 54.890625 34.8125 54.890625 23.390625 
Q 54.890625 11.625 47.5625 5.09375 
Q 40.234375 -1.421875 26.90625 -1.421875 
Q 22.3125 -1.421875 17.546875 -0.640625 
Q 12.796875 0.140625 7.71875 1.703125 
L 7.71875 11.625 
Q 12.109375 9.234375 16.796875 8.0625 
Q 21.484375 6.890625 26.703125 6.890625 
Q 35.15625 6.890625 40.078125 11.328125 
Q 45.015625 15.765625 45.015625 23.390625 
Q 45.015625 31 40.078125 35.4375 
Q 35.15625 39.890625 26.703125 39.890625 
Q 22.75 39.890625 18.8125 39.015625 
Q 14.890625 38.140625 10.796875 36.28125 
z
" id="DejaVuSans-53"/>
      </defs>
      <g transform="translate(449.462402 348.455238)scale(0.1 -0.1)">
       <use xlink:href="#DejaVuSans-53"/>
       <use x="63.623047" xlink:href="#DejaVuSans-48"/>
      </g>
     </g>
    </g>
    <g id="xtick_7">
     <g id="line2d_7">
      <g>
       <use style="stroke:#000000;stroke-width:0.8;" x="524.032518" xlink:href="#m56cde3ddc9" y="333.8568"/>
      </g>
     </g>
     <g id="text_7">
      <!-- 60 -->
      <defs>
       <path d="M 33.015625 40.375 
Q 26.375 40.375 22.484375 35.828125 
Q 18.609375 31.296875 18.609375 23.390625 
Q 18.609375 15.53125 22.484375 10.953125 
Q 26.375 6.390625 33.015625 6.390625 
Q 39.65625 6.390625 43.53125 10.953125 
Q 47.40625 15.53125 47.40625 23.390625 
Q 47.40625 31.296875 43.53125 35.828125 
Q 39.65625 40.375 33.015625 40.375 
z
M 52.59375 71.296875 
L 52.59375 62.3125 
Q 48.875 64.0625 45.09375 64.984375 
Q 41.3125 65.921875 37.59375 65.921875 
Q 27.828125 65.921875 22.671875 59.328125 
Q 17.53125 52.734375 16.796875 39.40625 
Q 19.671875 43.65625 24.015625 45.921875 
Q 28.375 48.1875 33.59375 48.1875 
Q 44.578125 48.1875 50.953125 41.515625 
Q 57.328125 34.859375 57.328125 23.390625 
Q 57.328125 12.15625 50.6875 5.359375 
Q 44.046875 -1.421875 33.015625 -1.421875 
Q 20.359375 -1.421875 13.671875 8.265625 
Q 6.984375 17.96875 6.984375 36.375 
Q 6.984375 53.65625 15.1875 63.9375 
Q 23.390625 74.21875 37.203125 74.21875 
Q 40.921875 74.21875 44.703125 73.484375 
Q 48.484375 72.75 52.59375 71.296875 
z
" id="DejaVuSans-54"/>
      </defs>
      <g transform="translate(517.670018 348.455238)scale(0.1 -0.1)">
       <use xlink:href="#DejaVuSans-54"/>
       <use x="63.623047" xlink:href="#DejaVuSans-48"/>
      </g>
     </g>
    </g>
    <g id="xtick_8">
     <g id="line2d_8">
      <g>
       <use style="stroke:#000000;stroke-width:0.8;" x="592.240135" xlink:href="#m56cde3ddc9" y="333.8568"/>
      </g>
     </g>
     <g id="text_8">
      <!-- 70 -->
      <defs>
       <path d="M 8.203125 72.90625 
L 55.078125 72.90625 
L 55.078125 68.703125 
L 28.609375 0 
L 18.3125 0 
L 43.21875 64.59375 
L 8.203125 64.59375 
z
" id="DejaVuSans-55"/>
      </defs>
      <g transform="translate(585.877635 348.455238)scale(0.1 -0.1)">
       <use xlink:href="#DejaVuSans-55"/>
       <use x="63.623047" xlink:href="#DejaVuSans-48"/>
      </g>
     </g>
    </g>
    <g id="text_9">
     <!-- Time (days) -->
     <defs>
      <path d="M -0.296875 72.90625 
L 61.375 72.90625 
L 61.375 64.59375 
L 35.5 64.59375 
L 35.5 0 
L 25.59375 0 
L 25.59375 64.59375 
L -0.296875 64.59375 
z
" id="DejaVuSans-84"/>
      <path d="M 9.421875 54.6875 
L 18.40625 54.6875 
L 18.40625 0 
L 9.421875 0 
z
M 9.421875 75.984375 
L 18.40625 75.984375 
L 18.40625 64.59375 
L 9.421875 64.59375 
z
" id="DejaVuSans-105"/>
      <path d="M 52 44.1875 
Q 55.375 50.25 60.0625 53.125 
Q 64.75 56 71.09375 56 
Q 79.640625 56 84.28125 50.015625 
Q 88.921875 44.046875 88.921875 33.015625 
L 88.921875 0 
L 79.890625 0 
L 79.890625 32.71875 
Q 79.890625 40.578125 77.09375 44.375 
Q 74.3125 48.1875 68.609375 48.1875 
Q 61.625 48.1875 57.5625 43.546875 
Q 53.515625 38.921875 53.515625 30.90625 
L 53.515625 0 
L 44.484375 0 
L 44.484375 32.71875 
Q 44.484375 40.625 41.703125 44.40625 
Q 38.921875 48.1875 33.109375 48.1875 
Q 26.21875 48.1875 22.15625 43.53125 
Q 18.109375 38.875 18.109375 30.90625 
L 18.109375 0 
L 9.078125 0 
L 9.078125 54.6875 
L 18.109375 54.6875 
L 18.109375 46.1875 
Q 21.1875 51.21875 25.484375 53.609375 
Q 29.78125 56 35.6875 56 
Q 41.65625 56 45.828125 52.96875 
Q 50 49.953125 52 44.1875 
z
" id="DejaVuSans-109"/>
      <path d="M 56.203125 29.59375 
L 56.203125 25.203125 
L 14.890625 25.203125 
Q 15.484375 15.921875 20.484375 11.0625 
Q 25.484375 6.203125 34.421875 6.203125 
Q 39.59375 6.203125 44.453125 7.46875 
Q 49.3125 8.734375 54.109375 11.28125 
L 54.109375 2.78125 
Q 49.265625 0.734375 44.1875 -0.34375 
Q 39.109375 -1.421875 33.890625 -1.421875 
Q 20.796875 -1.421875 13.15625 6.1875 
Q 5.515625 13.8125 5.515625 26.8125 
Q 5.515625 40.234375 12.765625 48.109375 
Q 20.015625 56 32.328125 56 
Q 43.359375 56 49.78125 48.890625 
Q 56.203125 41.796875 56.203125 29.59375 
z
M 47.21875 32.234375 
Q 47.125 39.59375 43.09375 43.984375 
Q 39.0625 48.390625 32.421875 48.390625 
Q 24.90625 48.390625 20.390625 44.140625 
Q 15.875 39.890625 15.1875 32.171875 
z
" id="DejaVuSans-101"/>
      <path id="DejaVuSans-32"/>
      <path d="M 31 75.875 
Q 24.46875 64.65625 21.28125 53.65625 
Q 18.109375 42.671875 18.109375 31.390625 
Q 18.109375 20.125 21.3125 9.0625 
Q 24.515625 -2 31 -13.1875 
L 23.1875 -13.1875 
Q 15.875 -1.703125 12.234375 9.375 
Q 8.59375 20.453125 8.59375 31.390625 
Q 8.59375 42.28125 12.203125 53.3125 
Q 15.828125 64.359375 23.1875 75.875 
z
" id="DejaVuSans-40"/>
      <path d="M 45.40625 46.390625 
L 45.40625 75.984375 
L 54.390625 75.984375 
L 54.390625 0 
L 45.40625 0 
L 45.40625 8.203125 
Q 42.578125 3.328125 38.25 0.953125 
Q 33.9375 -1.421875 27.875 -1.421875 
Q 17.96875 -1.421875 11.734375 6.484375 
Q 5.515625 14.40625 5.515625 27.296875 
Q 5.515625 40.1875 11.734375 48.09375 
Q 17.96875 56 27.875 56 
Q 33.9375 56 38.25 53.625 
Q 42.578125 51.265625 45.40625 46.390625 
z
M 14.796875 27.296875 
Q 14.796875 17.390625 18.875 11.75 
Q 22.953125 6.109375 30.078125 6.109375 
Q 37.203125 6.109375 41.296875 11.75 
Q 45.40625 17.390625 45.40625 27.296875 
Q 45.40625 37.203125 41.296875 42.84375 
Q 37.203125 48.484375 30.078125 48.484375 
Q 22.953125 48.484375 18.875 42.84375 
Q 14.796875 37.203125 14.796875 27.296875 
z
" id="DejaVuSans-100"/>
      <path d="M 34.28125 27.484375 
Q 23.390625 27.484375 19.1875 25 
Q 14.984375 22.515625 14.984375 16.5 
Q 14.984375 11.71875 18.140625 8.90625 
Q 21.296875 6.109375 26.703125 6.109375 
Q 34.1875 6.109375 38.703125 11.40625 
Q 43.21875 16.703125 43.21875 25.484375 
L 43.21875 27.484375 
z
M 52.203125 31.203125 
L 52.203125 0 
L 43.21875 0 
L 43.21875 8.296875 
Q 40.140625 3.328125 35.546875 0.953125 
Q 30.953125 -1.421875 24.3125 -1.421875 
Q 15.921875 -1.421875 10.953125 3.296875 
Q 6 8.015625 6 15.921875 
Q 6 25.140625 12.171875 29.828125 
Q 18.359375 34.515625 30.609375 34.515625 
L 43.21875 34.515625 
L 43.21875 35.40625 
Q 43.21875 41.609375 39.140625 45 
Q 35.0625 48.390625 27.6875 48.390625 
Q 23 48.390625 18.546875 47.265625 
Q 14.109375 46.140625 10.015625 43.890625 
L 10.015625 52.203125 
Q 14.9375 54.109375 19.578125 55.046875 
Q 24.21875 56 28.609375 56 
Q 40.484375 56 46.34375 49.84375 
Q 52.203125 43.703125 52.203125 31.203125 
z
" id="DejaVuSans-97"/>
      <path d="M 32.171875 -5.078125 
Q 28.375 -14.84375 24.75 -17.8125 
Q 21.140625 -20.796875 15.09375 -20.796875 
L 7.90625 -20.796875 
L 7.90625 -13.28125 
L 13.1875 -13.28125 
Q 16.890625 -13.28125 18.9375 -11.515625 
Q 21 -9.765625 23.484375 -3.21875 
L 25.09375 0.875 
L 2.984375 54.6875 
L 12.5 54.6875 
L 29.59375 11.921875 
L 46.6875 54.6875 
L 56.203125 54.6875 
z
" id="DejaVuSans-121"/>
      <path d="M 44.28125 53.078125 
L 44.28125 44.578125 
Q 40.484375 46.53125 36.375 47.5 
Q 32.28125 48.484375 27.875 48.484375 
Q 21.1875 48.484375 17.84375 46.4375 
Q 14.5 44.390625 14.5 40.28125 
Q 14.5 37.15625 16.890625 35.375 
Q 19.28125 33.59375 26.515625 31.984375 
L 29.59375 31.296875 
Q 39.15625 29.25 43.1875 25.515625 
Q 47.21875 21.78125 47.21875 15.09375 
Q 47.21875 7.46875 41.1875 3.015625 
Q 35.15625 -1.421875 24.609375 -1.421875 
Q 20.21875 -1.421875 15.453125 -0.5625 
Q 10.6875 0.296875 5.421875 2 
L 5.421875 11.28125 
Q 10.40625 8.6875 15.234375 7.390625 
Q 20.0625 6.109375 24.8125 6.109375 
Q 31.15625 6.109375 34.5625 8.28125 
Q 37.984375 10.453125 37.984375 14.40625 
Q 37.984375 18.0625 35.515625 20.015625 
Q 33.0625 21.96875 24.703125 23.78125 
L 21.578125 24.515625 
Q 13.234375 26.265625 9.515625 29.90625 
Q 5.8125 33.546875 5.8125 39.890625 
Q 5.8125 47.609375 11.28125 51.796875 
Q 16.75 56 26.8125 56 
Q 31.78125 56 36.171875 55.265625 
Q 40.578125 54.546875 44.28125 53.078125 
z
" id="DejaVuSans-115"/>
      <path d="M 8.015625 75.875 
L 15.828125 75.875 
Q 23.140625 64.359375 26.78125 53.3125 
Q 30.421875 42.28125 30.421875 31.390625 
Q 30.421875 20.453125 26.78125 9.375 
Q 23.140625 -1.703125 15.828125 -13.1875 
L 8.015625 -13.1875 
Q 14.5 -2 17.703125 9.0625 
Q 20.90625 20.125 20.90625 31.390625 
Q 20.90625 42.671875 17.703125 53.65625 
Q 14.5 64.65625 8.015625 75.875 
z
" id="DejaVuSans-41"/>
     </defs>
     <g transform="translate(337.628438 362.133363)scale(0.1 -0.1)">
      <use xlink:href="#DejaVuSans-84"/>
      <use x="57.958984" xlink:href="#DejaVuSans-105"/>
      <use x="85.742188" xlink:href="#DejaVuSans-109"/>
      <use x="183.154297" xlink:href="#DejaVuSans-101"/>
      <use x="244.677734" xlink:href="#DejaVuSans-32"/>
      <use x="276.464844" xlink:href="#DejaVuSans-40"/>
      <use x="315.478516" xlink:href="#DejaVuSans-100"/>
      <use x="378.955078" xlink:href="#DejaVuSans-97"/>
      <use x="440.234375" xlink:href="#DejaVuSans-121"/>
      <use x="499.414062" xlink:href="#DejaVuSans-115"/>
      <use x="551.513672" xlink:href="#DejaVuSans-41"/>
     </g>
    </g>
   </g>
   <g id="matplotlib.axis_2">
    <g id="ytick_1">
     <g id="line2d_9">
      <defs>
       <path d="M 0 0 
L -3.5 0 
" id="ma093096217" style="stroke:#000000;stroke-width:0.8;"/>
      </defs>
      <g>
       <use style="stroke:#000000;stroke-width:0.8;" x="89.55" xlink:href="#ma093096217" y="333.8568"/>
      </g>
     </g>
     <g id="text_10">
      <!-- 0 -->
      <g transform="translate(76.1875 337.656019)scale(0.1 -0.1)">
       <use xlink:href="#DejaVuSans-48"/>
      </g>
     </g>
    </g>
    <g id="ytick_2">
     <g id="line2d_10">
      <g>
       <use style="stroke:#000000;stroke-width:0.8;" x="89.55" xlink:href="#ma093096217" y="278.8392"/>
      </g>
     </g>
     <g id="text_11">
      <!-- 20000 -->
      <g transform="translate(50.7375 282.638419)scale(0.1 -0.1)">
       <use xlink:href="#DejaVuSans-50"/>
       <use x="63.623047" xlink:href="#DejaVuSans-48"/>
       <use x="127.246094" xlink:href="#DejaVuSans-48"/>
       <use x="190.869141" xlink:href="#DejaVuSans-48"/>
       <use x="254.492188" xlink:href="#DejaVuSans-48"/>
      </g>
     </g>
    </g>
    <g id="ytick_3">
     <g id="line2d_11">
      <g>
       <use style="stroke:#000000;stroke-width:0.8;" x="89.55" xlink:href="#ma093096217" y="223.8216"/>
      </g>
     </g>
     <g id="text_12">
      <!-- 40000 -->
      <g transform="translate(50.7375 227.620819)scale(0.1 -0.1)">
       <use xlink:href="#DejaVuSans-52"/>
       <use x="63.623047" xlink:href="#DejaVuSans-48"/>
       <use x="127.246094" xlink:href="#DejaVuSans-48"/>
       <use x="190.869141" xlink:href="#DejaVuSans-48"/>
       <use x="254.492188" xlink:href="#DejaVuSans-48"/>
      </g>
     </g>
    </g>
    <g id="ytick_4">
     <g id="line2d_12">
      <g>
       <use style="stroke:#000000;stroke-width:0.8;" x="89.55" xlink:href="#ma093096217" y="168.804"/>
      </g>
     </g>
     <g id="text_13">
      <!-- 60000 -->
      <g transform="translate(50.7375 172.603219)scale(0.1 -0.1)">
       <use xlink:href="#DejaVuSans-54"/>
       <use x="63.623047" xlink:href="#DejaVuSans-48"/>
       <use x="127.246094" xlink:href="#DejaVuSans-48"/>
       <use x="190.869141" xlink:href="#DejaVuSans-48"/>
       <use x="254.492188" xlink:href="#DejaVuSans-48"/>
      </g>
     </g>
    </g>
    <g id="ytick_5">
     <g id="line2d_13">
      <g>
       <use style="stroke:#000000;stroke-width:0.8;" x="89.55" xlink:href="#ma093096217" y="113.7864"/>
      </g>
     </g>
     <g id="text_14">
      <!-- 80000 -->
      <defs>
       <path d="M 31.78125 34.625 
Q 24.75 34.625 20.71875 30.859375 
Q 16.703125 27.09375 16.703125 20.515625 
Q 16.703125 13.921875 20.71875 10.15625 
Q 24.75 6.390625 31.78125 6.390625 
Q 38.8125 6.390625 42.859375 10.171875 
Q 46.921875 13.96875 46.921875 20.515625 
Q 46.921875 27.09375 42.890625 30.859375 
Q 38.875 34.625 31.78125 34.625 
z
M 21.921875 38.8125 
Q 15.578125 40.375 12.03125 44.71875 
Q 8.5 49.078125 8.5 55.328125 
Q 8.5 64.0625 14.71875 69.140625 
Q 20.953125 74.21875 31.78125 74.21875 
Q 42.671875 74.21875 48.875 69.140625 
Q 55.078125 64.0625 55.078125 55.328125 
Q 55.078125 49.078125 51.53125 44.71875 
Q 48 40.375 41.703125 38.8125 
Q 48.828125 37.15625 52.796875 32.3125 
Q 56.78125 27.484375 56.78125 20.515625 
Q 56.78125 9.90625 50.3125 4.234375 
Q 43.84375 -1.421875 31.78125 -1.421875 
Q 19.734375 -1.421875 13.25 4.234375 
Q 6.78125 9.90625 6.78125 20.515625 
Q 6.78125 27.484375 10.78125 32.3125 
Q 14.796875 37.15625 21.921875 38.8125 
z
M 18.3125 54.390625 
Q 18.3125 48.734375 21.84375 45.5625 
Q 25.390625 42.390625 31.78125 42.390625 
Q 38.140625 42.390625 41.71875 45.5625 
Q 45.3125 48.734375 45.3125 54.390625 
Q 45.3125 60.0625 41.71875 63.234375 
Q 38.140625 66.40625 31.78125 66.40625 
Q 25.390625 66.40625 21.84375 63.234375 
Q 18.3125 60.0625 18.3125 54.390625 
z
" id="DejaVuSans-56"/>
      </defs>
      <g transform="translate(50.7375 117.585619)scale(0.1 -0.1)">
       <use xlink:href="#DejaVuSans-56"/>
       <use x="63.623047" xlink:href="#DejaVuSans-48"/>
       <use x="127.246094" xlink:href="#DejaVuSans-48"/>
       <use x="190.869141" xlink:href="#DejaVuSans-48"/>
       <use x="254.492188" xlink:href="#DejaVuSans-48"/>
      </g>
     </g>
    </g>
    <g id="ytick_6">
     <g id="line2d_14">
      <g>
       <use style="stroke:#000000;stroke-width:0.8;" x="89.55" xlink:href="#ma093096217" y="58.7688"/>
      </g>
     </g>
     <g id="text_15">
      <!-- 100000 -->
      <g transform="translate(44.375 62.568019)scale(0.1 -0.1)">
       <use xlink:href="#DejaVuSans-49"/>
       <use x="63.623047" xlink:href="#DejaVuSans-48"/>
       <use x="127.246094" xlink:href="#DejaVuSans-48"/>
       <use x="190.869141" xlink:href="#DejaVuSans-48"/>
       <use x="254.492188" xlink:href="#DejaVuSans-48"/>
       <use x="318.115234" xlink:href="#DejaVuSans-48"/>
      </g>
     </g>
    </g>
    <g id="text_16">
     <!-- People -->
     <defs>
      <path d="M 19.671875 64.796875 
L 19.671875 37.40625 
L 32.078125 37.40625 
Q 38.96875 37.40625 42.71875 40.96875 
Q 46.484375 44.53125 46.484375 51.125 
Q 46.484375 57.671875 42.71875 61.234375 
Q 38.96875 64.796875 32.078125 64.796875 
z
M 9.8125 72.90625 
L 32.078125 72.90625 
Q 44.34375 72.90625 50.609375 67.359375 
Q 56.890625 61.8125 56.890625 51.125 
Q 56.890625 40.328125 50.609375 34.8125 
Q 44.34375 29.296875 32.078125 29.296875 
L 19.671875 29.296875 
L 19.671875 0 
L 9.8125 0 
z
" id="DejaVuSans-80"/>
      <path d="M 30.609375 48.390625 
Q 23.390625 48.390625 19.1875 42.75 
Q 14.984375 37.109375 14.984375 27.296875 
Q 14.984375 17.484375 19.15625 11.84375 
Q 23.34375 6.203125 30.609375 6.203125 
Q 37.796875 6.203125 41.984375 11.859375 
Q 46.1875 17.53125 46.1875 27.296875 
Q 46.1875 37.015625 41.984375 42.703125 
Q 37.796875 48.390625 30.609375 48.390625 
z
M 30.609375 56 
Q 42.328125 56 49.015625 48.375 
Q 55.71875 40.765625 55.71875 27.296875 
Q 55.71875 13.875 49.015625 6.21875 
Q 42.328125 -1.421875 30.609375 -1.421875 
Q 18.84375 -1.421875 12.171875 6.21875 
Q 5.515625 13.875 5.515625 27.296875 
Q 5.515625 40.765625 12.171875 48.375 
Q 18.84375 56 30.609375 56 
z
" id="DejaVuSans-111"/>
      <path d="M 18.109375 8.203125 
L 18.109375 -20.796875 
L 9.078125 -20.796875 
L 9.078125 54.6875 
L 18.109375 54.6875 
L 18.109375 46.390625 
Q 20.953125 51.265625 25.265625 53.625 
Q 29.59375 56 35.59375 56 
Q 45.5625 56 51.78125 48.09375 
Q 58.015625 40.1875 58.015625 27.296875 
Q 58.015625 14.40625 51.78125 6.484375 
Q 45.5625 -1.421875 35.59375 -1.421875 
Q 29.59375 -1.421875 25.265625 0.953125 
Q 20.953125 3.328125 18.109375 8.203125 
z
M 48.6875 27.296875 
Q 48.6875 37.203125 44.609375 42.84375 
Q 40.53125 48.484375 33.40625 48.484375 
Q 26.265625 48.484375 22.1875 42.84375 
Q 18.109375 37.203125 18.109375 27.296875 
Q 18.109375 17.390625 22.1875 11.75 
Q 26.265625 6.109375 33.40625 6.109375 
Q 40.53125 6.109375 44.609375 11.75 
Q 48.6875 17.390625 48.6875 27.296875 
z
" id="DejaVuSans-112"/>
      <path d="M 9.421875 75.984375 
L 18.40625 75.984375 
L 18.40625 0 
L 9.421875 0 
z
" id="DejaVuSans-108"/>
     </defs>
     <g transform="translate(38.295312 206.044975)rotate(-90)scale(0.1 -0.1)">
      <use xlink:href="#DejaVuSans-80"/>
      <use x="56.677734" xlink:href="#DejaVuSans-101"/>
      <use x="118.201172" xlink:href="#DejaVuSans-111"/>
      <use x="179.382812" xlink:href="#DejaVuSans-112"/>
      <use x="242.859375" xlink:href="#DejaVuSans-108"/>
      <use x="270.642578" xlink:href="#DejaVuSans-101"/>
     </g>
    </g>
   </g>
   <g id="patch_3">
    <path d="M 89.55 333.8568 
L 89.55 45.0144 
" style="fill:none;stroke:#000000;stroke-linecap:square;stroke-linejoin:miter;stroke-width:0.8;"/>
   </g>
   <g id="patch_4">
    <path d="M 644.76 333.8568 
L 644.76 45.0144 
" style="fill:none;stroke:#000000;stroke-linecap:square;stroke-linejoin:miter;stroke-width:0.8;"/>
   </g>
   <g id="patch_5">
    <path d="M 89.55 333.8568 
L 644.76 333.8568 
" style="fill:none;stroke:#000000;stroke-linecap:square;stroke-linejoin:miter;stroke-width:0.8;"/>
   </g>
   <g id="patch_6">
    <path d="M 89.55 45.0144 
L 644.76 45.0144 
" style="fill:none;stroke:#000000;stroke-linecap:square;stroke-linejoin:miter;stroke-width:0.8;"/>
   </g>
   <g id="text_17">
    <!-- Progression of infective disease. Model COVID_AB_v1.1 -->
    <defs>
     <path d="M 41.109375 46.296875 
Q 39.59375 47.171875 37.8125 47.578125 
Q 36.03125 48 33.890625 48 
Q 26.265625 48 22.1875 43.046875 
Q 18.109375 38.09375 18.109375 28.8125 
L 18.109375 0 
L 9.078125 0 
L 9.078125 54.6875 
L 18.109375 54.6875 
L 18.109375 46.1875 
Q 20.953125 51.171875 25.484375 53.578125 
Q 30.03125 56 36.53125 56 
Q 37.453125 56 38.578125 55.875 
Q 39.703125 55.765625 41.0625 55.515625 
z
" id="DejaVuSans-114"/>
     <path d="M 45.40625 27.984375 
Q 45.40625 37.75 41.375 43.109375 
Q 37.359375 48.484375 30.078125 48.484375 
Q 22.859375 48.484375 18.828125 43.109375 
Q 14.796875 37.75 14.796875 27.984375 
Q 14.796875 18.265625 18.828125 12.890625 
Q 22.859375 7.515625 30.078125 7.515625 
Q 37.359375 7.515625 41.375 12.890625 
Q 45.40625 18.265625 45.40625 27.984375 
z
M 54.390625 6.78125 
Q 54.390625 -7.171875 48.1875 -13.984375 
Q 42 -20.796875 29.203125 -20.796875 
Q 24.46875 -20.796875 20.265625 -20.09375 
Q 16.0625 -19.390625 12.109375 -17.921875 
L 12.109375 -9.1875 
Q 16.0625 -11.328125 19.921875 -12.34375 
Q 23.78125 -13.375 27.78125 -13.375 
Q 36.625 -13.375 41.015625 -8.765625 
Q 45.40625 -4.15625 45.40625 5.171875 
L 45.40625 9.625 
Q 42.625 4.78125 38.28125 2.390625 
Q 33.9375 0 27.875 0 
Q 17.828125 0 11.671875 7.65625 
Q 5.515625 15.328125 5.515625 27.984375 
Q 5.515625 40.671875 11.671875 48.328125 
Q 17.828125 56 27.875 56 
Q 33.9375 56 38.28125 53.609375 
Q 42.625 51.21875 45.40625 46.390625 
L 45.40625 54.6875 
L 54.390625 54.6875 
z
" id="DejaVuSans-103"/>
     <path d="M 54.890625 33.015625 
L 54.890625 0 
L 45.90625 0 
L 45.90625 32.71875 
Q 45.90625 40.484375 42.875 44.328125 
Q 39.84375 48.1875 33.796875 48.1875 
Q 26.515625 48.1875 22.3125 43.546875 
Q 18.109375 38.921875 18.109375 30.90625 
L 18.109375 0 
L 9.078125 0 
L 9.078125 54.6875 
L 18.109375 54.6875 
L 18.109375 46.1875 
Q 21.34375 51.125 25.703125 53.5625 
Q 30.078125 56 35.796875 56 
Q 45.21875 56 50.046875 50.171875 
Q 54.890625 44.34375 54.890625 33.015625 
z
" id="DejaVuSans-110"/>
     <path d="M 37.109375 75.984375 
L 37.109375 68.5 
L 28.515625 68.5 
Q 23.6875 68.5 21.796875 66.546875 
Q 19.921875 64.59375 19.921875 59.515625 
L 19.921875 54.6875 
L 34.71875 54.6875 
L 34.71875 47.703125 
L 19.921875 47.703125 
L 19.921875 0 
L 10.890625 0 
L 10.890625 47.703125 
L 2.296875 47.703125 
L 2.296875 54.6875 
L 10.890625 54.6875 
L 10.890625 58.5 
Q 10.890625 67.625 15.140625 71.796875 
Q 19.390625 75.984375 28.609375 75.984375 
z
" id="DejaVuSans-102"/>
     <path d="M 48.78125 52.59375 
L 48.78125 44.1875 
Q 44.96875 46.296875 41.140625 47.34375 
Q 37.3125 48.390625 33.40625 48.390625 
Q 24.65625 48.390625 19.8125 42.84375 
Q 14.984375 37.3125 14.984375 27.296875 
Q 14.984375 17.28125 19.8125 11.734375 
Q 24.65625 6.203125 33.40625 6.203125 
Q 37.3125 6.203125 41.140625 7.25 
Q 44.96875 8.296875 48.78125 10.40625 
L 48.78125 2.09375 
Q 45.015625 0.34375 40.984375 -0.53125 
Q 36.96875 -1.421875 32.421875 -1.421875 
Q 20.0625 -1.421875 12.78125 6.34375 
Q 5.515625 14.109375 5.515625 27.296875 
Q 5.515625 40.671875 12.859375 48.328125 
Q 20.21875 56 33.015625 56 
Q 37.15625 56 41.109375 55.140625 
Q 45.0625 54.296875 48.78125 52.59375 
z
" id="DejaVuSans-99"/>
     <path d="M 18.3125 70.21875 
L 18.3125 54.6875 
L 36.8125 54.6875 
L 36.8125 47.703125 
L 18.3125 47.703125 
L 18.3125 18.015625 
Q 18.3125 11.328125 20.140625 9.421875 
Q 21.96875 7.515625 27.59375 7.515625 
L 36.8125 7.515625 
L 36.8125 0 
L 27.59375 0 
Q 17.1875 0 13.234375 3.875 
Q 9.28125 7.765625 9.28125 18.015625 
L 9.28125 47.703125 
L 2.6875 47.703125 
L 2.6875 54.6875 
L 9.28125 54.6875 
L 9.28125 70.21875 
z
" id="DejaVuSans-116"/>
     <path d="M 2.984375 54.6875 
L 12.5 54.6875 
L 29.59375 8.796875 
L 46.6875 54.6875 
L 56.203125 54.6875 
L 35.6875 0 
L 23.484375 0 
z
" id="DejaVuSans-118"/>
     <path d="M 10.6875 12.40625 
L 21 12.40625 
L 21 0 
L 10.6875 0 
z
" id="DejaVuSans-46"/>
     <path d="M 9.8125 72.90625 
L 24.515625 72.90625 
L 43.109375 23.296875 
L 61.8125 72.90625 
L 76.515625 72.90625 
L 76.515625 0 
L 66.890625 0 
L 66.890625 64.015625 
L 48.09375 14.015625 
L 38.1875 14.015625 
L 19.390625 64.015625 
L 19.390625 0 
L 9.8125 0 
z
" id="DejaVuSans-77"/>
     <path d="M 64.40625 67.28125 
L 64.40625 56.890625 
Q 59.421875 61.53125 53.78125 63.8125 
Q 48.140625 66.109375 41.796875 66.109375 
Q 29.296875 66.109375 22.65625 58.46875 
Q 16.015625 50.828125 16.015625 36.375 
Q 16.015625 21.96875 22.65625 14.328125 
Q 29.296875 6.6875 41.796875 6.6875 
Q 48.140625 6.6875 53.78125 8.984375 
Q 59.421875 11.28125 64.40625 15.921875 
L 64.40625 5.609375 
Q 59.234375 2.09375 53.4375 0.328125 
Q 47.65625 -1.421875 41.21875 -1.421875 
Q 24.65625 -1.421875 15.125 8.703125 
Q 5.609375 18.84375 5.609375 36.375 
Q 5.609375 53.953125 15.125 64.078125 
Q 24.65625 74.21875 41.21875 74.21875 
Q 47.75 74.21875 53.53125 72.484375 
Q 59.328125 70.75 64.40625 67.28125 
z
" id="DejaVuSans-67"/>
     <path d="M 39.40625 66.21875 
Q 28.65625 66.21875 22.328125 58.203125 
Q 16.015625 50.203125 16.015625 36.375 
Q 16.015625 22.609375 22.328125 14.59375 
Q 28.65625 6.59375 39.40625 6.59375 
Q 50.140625 6.59375 56.421875 14.59375 
Q 62.703125 22.609375 62.703125 36.375 
Q 62.703125 50.203125 56.421875 58.203125 
Q 50.140625 66.21875 39.40625 66.21875 
z
M 39.40625 74.21875 
Q 54.734375 74.21875 63.90625 63.9375 
Q 73.09375 53.65625 73.09375 36.375 
Q 73.09375 19.140625 63.90625 8.859375 
Q 54.734375 -1.421875 39.40625 -1.421875 
Q 24.03125 -1.421875 14.8125 8.828125 
Q 5.609375 19.09375 5.609375 36.375 
Q 5.609375 53.65625 14.8125 63.9375 
Q 24.03125 74.21875 39.40625 74.21875 
z
" id="DejaVuSans-79"/>
     <path d="M 28.609375 0 
L 0.78125 72.90625 
L 11.078125 72.90625 
L 34.1875 11.53125 
L 57.328125 72.90625 
L 67.578125 72.90625 
L 39.796875 0 
z
" id="DejaVuSans-86"/>
     <path d="M 9.8125 72.90625 
L 19.671875 72.90625 
L 19.671875 0 
L 9.8125 0 
z
" id="DejaVuSans-73"/>
     <path d="M 19.671875 64.796875 
L 19.671875 8.109375 
L 31.59375 8.109375 
Q 46.6875 8.109375 53.6875 14.9375 
Q 60.6875 21.78125 60.6875 36.53125 
Q 60.6875 51.171875 53.6875 57.984375 
Q 46.6875 64.796875 31.59375 64.796875 
z
M 9.8125 72.90625 
L 30.078125 72.90625 
Q 51.265625 72.90625 61.171875 64.09375 
Q 71.09375 55.28125 71.09375 36.53125 
Q 71.09375 17.671875 61.125 8.828125 
Q 51.171875 0 30.078125 0 
L 9.8125 0 
z
" id="DejaVuSans-68"/>
     <path d="M 50.984375 -16.609375 
L 50.984375 -23.578125 
L -0.984375 -23.578125 
L -0.984375 -16.609375 
z
" id="DejaVuSans-95"/>
     <path d="M 34.1875 63.1875 
L 20.796875 26.90625 
L 47.609375 26.90625 
z
M 28.609375 72.90625 
L 39.796875 72.90625 
L 67.578125 0 
L 57.328125 0 
L 50.6875 18.703125 
L 17.828125 18.703125 
L 11.1875 0 
L 0.78125 0 
z
" id="DejaVuSans-65"/>
     <path d="M 19.671875 34.8125 
L 19.671875 8.109375 
L 35.5 8.109375 
Q 43.453125 8.109375 47.28125 11.40625 
Q 51.125 14.703125 51.125 21.484375 
Q 51.125 28.328125 47.28125 31.5625 
Q 43.453125 34.8125 35.5 34.8125 
z
M 19.671875 64.796875 
L 19.671875 42.828125 
L 34.28125 42.828125 
Q 41.5 42.828125 45.03125 45.53125 
Q 48.578125 48.25 48.578125 53.8125 
Q 48.578125 59.328125 45.03125 62.0625 
Q 41.5 64.796875 34.28125 64.796875 
z
M 9.8125 72.90625 
L 35.015625 72.90625 
Q 46.296875 72.90625 52.390625 68.21875 
Q 58.5 63.53125 58.5 54.890625 
Q 58.5 48.1875 55.375 44.234375 
Q 52.25 40.28125 46.1875 39.3125 
Q 53.46875 37.75 57.5 32.78125 
Q 61.53125 27.828125 61.53125 20.40625 
Q 61.53125 10.640625 54.890625 5.3125 
Q 48.25 0 35.984375 0 
L 9.8125 0 
z
" id="DejaVuSans-66"/>
    </defs>
    <g transform="translate(201.935625 39.0144)scale(0.12 -0.12)">
     <use xlink:href="#DejaVuSans-80"/>
     <use x="58.552734" xlink:href="#DejaVuSans-114"/>
     <use x="97.416016" xlink:href="#DejaVuSans-111"/>
     <use x="158.597656" xlink:href="#DejaVuSans-103"/>
     <use x="222.074219" xlink:href="#DejaVuSans-114"/>
     <use x="260.9375" xlink:href="#DejaVuSans-101"/>
     <use x="322.460938" xlink:href="#DejaVuSans-115"/>
     <use x="374.560547" xlink:href="#DejaVuSans-115"/>
     <use x="426.660156" xlink:href="#DejaVuSans-105"/>
     <use x="454.443359" xlink:href="#DejaVuSans-111"/>
     <use x="515.625" xlink:href="#DejaVuSans-110"/>
     <use x="579.003906" xlink:href="#DejaVuSans-32"/>
     <use x="610.791016" xlink:href="#DejaVuSans-111"/>
     <use x="671.972656" xlink:href="#DejaVuSans-102"/>
     <use x="707.177734" xlink:href="#DejaVuSans-32"/>
     <use x="738.964844" xlink:href="#DejaVuSans-105"/>
     <use x="766.748047" xlink:href="#DejaVuSans-110"/>
     <use x="830.126953" xlink:href="#DejaVuSans-102"/>
     <use x="865.332031" xlink:href="#DejaVuSans-101"/>
     <use x="926.855469" xlink:href="#DejaVuSans-99"/>
     <use x="981.835938" xlink:href="#DejaVuSans-116"/>
     <use x="1021.044922" xlink:href="#DejaVuSans-105"/>
     <use x="1048.828125" xlink:href="#DejaVuSans-118"/>
     <use x="1108.007812" xlink:href="#DejaVuSans-101"/>
     <use x="1169.53125" xlink:href="#DejaVuSans-32"/>
     <use x="1201.318359" xlink:href="#DejaVuSans-100"/>
     <use x="1264.794922" xlink:href="#DejaVuSans-105"/>
     <use x="1292.578125" xlink:href="#DejaVuSans-115"/>
     <use x="1344.677734" xlink:href="#DejaVuSans-101"/>
     <use x="1406.201172" xlink:href="#DejaVuSans-97"/>
     <use x="1467.480469" xlink:href="#DejaVuSans-115"/>
     <use x="1519.580078" xlink:href="#DejaVuSans-101"/>
     <use x="1581.103516" xlink:href="#DejaVuSans-46"/>
     <use x="1612.890625" xlink:href="#DejaVuSans-32"/>
     <use x="1644.677734" xlink:href="#DejaVuSans-77"/>
     <use x="1730.957031" xlink:href="#DejaVuSans-111"/>
     <use x="1792.138672" xlink:href="#DejaVuSans-100"/>
     <use x="1855.615234" xlink:href="#DejaVuSans-101"/>
     <use x="1917.138672" xlink:href="#DejaVuSans-108"/>
     <use x="1944.921875" xlink:href="#DejaVuSans-32"/>
     <use x="1976.708984" xlink:href="#DejaVuSans-67"/>
     <use x="2046.533203" xlink:href="#DejaVuSans-79"/>
     <use x="2123.494141" xlink:href="#DejaVuSans-86"/>
     <use x="2191.902344" xlink:href="#DejaVuSans-73"/>
     <use x="2221.394531" xlink:href="#DejaVuSans-68"/>
     <use x="2298.396484" xlink:href="#DejaVuSans-95"/>
     <use x="2348.396484" xlink:href="#DejaVuSans-65"/>
     <use x="2416.804688" xlink:href="#DejaVuSans-66"/>
     <use x="2485.408203" xlink:href="#DejaVuSans-95"/>
     <use x="2535.408203" xlink:href="#DejaVuSans-118"/>
     <use x="2594.587891" xlink:href="#DejaVuSans-49"/>
     <use x="2658.210938" xlink:href="#DejaVuSans-46"/>
     <use x="2689.998047" xlink:href="#DejaVuSans-49"/>
    </g>
   </g>
   <g id="legend_1">
    <g id="patch_7">
     <path d="M 559.36 112.747213 
L 637.76 112.747213 
Q 639.76 112.747213 639.76 110.747213 
L 639.76 52.0144 
Q 639.76 50.0144 637.76 50.0144 
L 559.36 50.0144 
Q 557.36 50.0144 557.36 52.0144 
L 557.36 110.747213 
Q 557.36 112.747213 559.36 112.747213 
z
" style="fill:#ffffff;opacity:0.8;stroke:#cccccc;stroke-linejoin:miter;"/>
    </g>
    <g id="patch_8">
     <path d="M 561.36 61.612838 
L 581.36 61.612838 
L 581.36 54.612838 
L 561.36 54.612838 
z
" style="fill:#424242;"/>
    </g>
    <g id="text_18">
     <!-- $n_{dead}$ -->
     <defs>
      <path d="M 55.71875 33.015625 
L 49.3125 0 
L 40.28125 0 
L 46.6875 32.671875 
Q 47.125 34.96875 47.359375 36.71875 
Q 47.609375 38.484375 47.609375 39.5 
Q 47.609375 43.609375 45.015625 45.890625 
Q 42.4375 48.1875 37.796875 48.1875 
Q 30.5625 48.1875 25.34375 43.375 
Q 20.125 38.578125 18.5 30.328125 
L 12.5 0 
L 3.515625 0 
L 14.109375 54.6875 
L 23.09375 54.6875 
L 21.296875 46.09375 
Q 25.046875 50.828125 30.3125 53.40625 
Q 35.59375 56 41.40625 56 
Q 48.640625 56 52.609375 52.09375 
Q 56.59375 48.1875 56.59375 41.109375 
Q 56.59375 39.359375 56.375 37.359375 
Q 56.15625 35.359375 55.71875 33.015625 
z
" id="DejaVuSans-Oblique-110"/>
      <path d="M 41.796875 8.203125 
Q 38.1875 3.46875 33.25 1.015625 
Q 28.328125 -1.421875 22.3125 -1.421875 
Q 14.109375 -1.421875 9.34375 4.171875 
Q 4.59375 9.765625 4.59375 19.484375 
Q 4.59375 27.59375 7.46875 34.9375 
Q 10.359375 42.28125 15.828125 48.09375 
Q 19.4375 51.953125 23.96875 53.96875 
Q 28.515625 56 33.5 56 
Q 38.765625 56 42.796875 53.453125 
Q 46.828125 50.921875 49.03125 46.1875 
L 54.890625 75.984375 
L 63.921875 75.984375 
L 49.125 0 
L 40.09375 0 
z
M 13.921875 21.09375 
Q 13.921875 14.015625 17.109375 10.0625 
Q 20.3125 6.109375 25.984375 6.109375 
Q 30.171875 6.109375 33.765625 8.125 
Q 37.359375 10.15625 40.09375 14.109375 
Q 42.96875 18.21875 44.625 23.578125 
Q 46.296875 28.953125 46.296875 34.1875 
Q 46.296875 40.96875 43.09375 44.765625 
Q 39.890625 48.578125 34.28125 48.578125 
Q 30.03125 48.578125 26.359375 46.578125 
Q 22.703125 44.578125 20.125 40.828125 
Q 17.28125 36.765625 15.59375 31.390625 
Q 13.921875 26.03125 13.921875 21.09375 
z
" id="DejaVuSans-Oblique-100"/>
      <path d="M 48.09375 32.234375 
Q 48.25 33.015625 48.3125 33.84375 
Q 48.390625 34.671875 48.390625 35.5 
Q 48.390625 41.453125 44.890625 44.921875 
Q 41.40625 48.390625 35.40625 48.390625 
Q 28.71875 48.390625 23.578125 44.15625 
Q 18.453125 39.9375 15.828125 32.171875 
z
M 55.90625 25.203125 
L 14.109375 25.203125 
Q 13.8125 23.34375 13.71875 22.265625 
Q 13.625 21.1875 13.625 20.40625 
Q 13.625 13.625 17.796875 9.90625 
Q 21.96875 6.203125 29.59375 6.203125 
Q 35.453125 6.203125 40.671875 7.515625 
Q 45.90625 8.84375 50.390625 11.375 
L 48.6875 2.484375 
Q 43.84375 0.53125 38.6875 -0.4375 
Q 33.546875 -1.421875 28.21875 -1.421875 
Q 16.84375 -1.421875 10.71875 4.015625 
Q 4.59375 9.46875 4.59375 19.484375 
Q 4.59375 28.03125 7.640625 35.375 
Q 10.6875 42.71875 16.609375 48.484375 
Q 20.40625 52.09375 25.65625 54.046875 
Q 30.90625 56 36.8125 56 
Q 46.09375 56 51.578125 50.4375 
Q 57.078125 44.875 57.078125 35.5 
Q 57.078125 33.25 56.78125 30.6875 
Q 56.5 28.125 55.90625 25.203125 
z
" id="DejaVuSans-Oblique-101"/>
      <path d="M 53.71875 31.203125 
L 47.609375 0 
L 38.625 0 
L 40.28125 8.296875 
Q 36.328125 3.421875 31.265625 1 
Q 26.21875 -1.421875 20.015625 -1.421875 
Q 13.03125 -1.421875 8.5625 2.84375 
Q 4.109375 7.125 4.109375 13.8125 
Q 4.109375 23.390625 11.75 28.953125 
Q 19.390625 34.515625 32.8125 34.515625 
L 45.3125 34.515625 
L 45.796875 36.921875 
Q 45.90625 37.3125 45.953125 37.765625 
Q 46 38.234375 46 39.203125 
Q 46 43.5625 42.453125 45.96875 
Q 38.921875 48.390625 32.515625 48.390625 
Q 28.125 48.390625 23.5 47.265625 
Q 18.890625 46.140625 14.015625 43.890625 
L 15.578125 52.203125 
Q 20.65625 54.109375 25.515625 55.046875 
Q 30.375 56 34.90625 56 
Q 44.578125 56 49.625 51.796875 
Q 54.6875 47.609375 54.6875 39.59375 
Q 54.6875 37.984375 54.4375 35.8125 
Q 54.203125 33.640625 53.71875 31.203125 
z
M 44 27.484375 
L 35.015625 27.484375 
Q 23.96875 27.484375 18.671875 24.53125 
Q 13.375 21.578125 13.375 15.375 
Q 13.375 11.078125 16.078125 8.640625 
Q 18.796875 6.203125 23.578125 6.203125 
Q 30.90625 6.203125 36.375 11.453125 
Q 41.84375 16.703125 43.609375 25.484375 
z
" id="DejaVuSans-Oblique-97"/>
     </defs>
     <g transform="translate(589.36 61.612838)scale(0.1 -0.1)">
      <use xlink:href="#DejaVuSans-Oblique-110"/>
      <use transform="translate(63.378906 -16.40625)scale(0.7)" xlink:href="#DejaVuSans-Oblique-100"/>
      <use transform="translate(107.8125 -16.40625)scale(0.7)" xlink:href="#DejaVuSans-Oblique-101"/>
      <use transform="translate(150.878906 -16.40625)scale(0.7)" xlink:href="#DejaVuSans-Oblique-97"/>
      <use transform="translate(193.774414 -16.40625)scale(0.7)" xlink:href="#DejaVuSans-Oblique-100"/>
     </g>
    </g>
    <g id="patch_9">
     <path d="M 561.36 76.290963 
L 581.36 76.290963 
L 581.36 69.290963 
L 561.36 69.290963 
z
" style="fill:#b6311c;"/>
    </g>
    <g id="text_19">
     <!-- $n_{infected}$ -->
     <defs>
      <path d="M 18.3125 75.984375 
L 27.296875 75.984375 
L 25.09375 64.59375 
L 16.109375 64.59375 
z
M 14.203125 54.6875 
L 23.1875 54.6875 
L 12.5 0 
L 3.515625 0 
z
" id="DejaVuSans-Oblique-105"/>
      <path d="M 47.796875 75.984375 
L 46.390625 68.5 
L 37.796875 68.5 
Q 32.90625 68.5 30.6875 66.578125 
Q 28.46875 64.65625 27.390625 59.515625 
L 26.421875 54.6875 
L 41.21875 54.6875 
L 39.890625 47.703125 
L 25.09375 47.703125 
L 15.828125 0 
L 6.78125 0 
L 16.109375 47.703125 
L 7.515625 47.703125 
L 8.796875 54.6875 
L 17.390625 54.6875 
L 18.109375 58.5 
Q 19.96875 68.171875 24.625 72.078125 
Q 29.296875 75.984375 39.3125 75.984375 
z
" id="DejaVuSans-Oblique-102"/>
      <path d="M 53.609375 52.59375 
L 51.8125 43.703125 
Q 48.578125 46.046875 44.9375 47.21875 
Q 41.3125 48.390625 37.40625 48.390625 
Q 33.109375 48.390625 29.21875 46.875 
Q 25.34375 45.359375 22.703125 42.578125 
Q 18.5 38.328125 16.203125 32.609375 
Q 13.921875 26.90625 13.921875 20.796875 
Q 13.921875 13.421875 17.609375 9.8125 
Q 21.296875 6.203125 28.8125 6.203125 
Q 32.515625 6.203125 36.6875 7.328125 
Q 40.875 8.453125 45.40625 10.6875 
L 43.703125 1.8125 
Q 39.796875 0.203125 35.671875 -0.609375 
Q 31.546875 -1.421875 27.203125 -1.421875 
Q 16.3125 -1.421875 10.453125 4.015625 
Q 4.59375 9.46875 4.59375 19.578125 
Q 4.59375 28.078125 7.640625 35.234375 
Q 10.6875 42.390625 16.703125 48.09375 
Q 20.796875 52 26.3125 54 
Q 31.84375 56 38.375 56 
Q 42.1875 56 45.9375 55.140625 
Q 49.703125 54.296875 53.609375 52.59375 
z
" id="DejaVuSans-Oblique-99"/>
      <path d="M 42.28125 54.6875 
L 40.921875 47.703125 
L 23 47.703125 
L 17.1875 18.015625 
Q 16.890625 16.359375 16.75 15.234375 
Q 16.609375 14.109375 16.609375 13.484375 
Q 16.609375 10.359375 18.484375 8.9375 
Q 20.359375 7.515625 24.515625 7.515625 
L 33.59375 7.515625 
L 32.078125 0 
L 23.484375 0 
Q 15.484375 0 11.546875 3.125 
Q 7.625 6.25 7.625 12.59375 
Q 7.625 13.71875 7.765625 15.0625 
Q 7.90625 16.40625 8.203125 18.015625 
L 14.015625 47.703125 
L 6.390625 47.703125 
L 7.8125 54.6875 
L 15.28125 54.6875 
L 18.3125 70.21875 
L 27.296875 70.21875 
L 24.3125 54.6875 
z
" id="DejaVuSans-Oblique-116"/>
     </defs>
     <g transform="translate(589.36 76.290963)scale(0.1 -0.1)">
      <use xlink:href="#DejaVuSans-Oblique-110"/>
      <use transform="translate(63.378906 -16.40625)scale(0.7)" xlink:href="#DejaVuSans-Oblique-105"/>
      <use transform="translate(82.827148 -16.40625)scale(0.7)" xlink:href="#DejaVuSans-Oblique-110"/>
      <use transform="translate(127.192383 -16.40625)scale(0.7)" xlink:href="#DejaVuSans-Oblique-102"/>
      <use transform="translate(151.835938 -16.40625)scale(0.7)" xlink:href="#DejaVuSans-Oblique-101"/>
      <use transform="translate(194.902344 -16.40625)scale(0.7)" xlink:href="#DejaVuSans-Oblique-99"/>
      <use transform="translate(233.388672 -16.40625)scale(0.7)" xlink:href="#DejaVuSans-Oblique-116"/>
      <use transform="translate(260.834961 -16.40625)scale(0.7)" xlink:href="#DejaVuSans-Oblique-101"/>
      <use transform="translate(303.901367 -16.40625)scale(0.7)" xlink:href="#DejaVuSans-Oblique-100"/>
     </g>
    </g>
    <g id="patch_10">
     <path d="M 561.36 90.969088 
L 581.36 90.969088 
L 581.36 83.969088 
L 561.36 83.969088 
z
" style="fill:#276ba2;"/>
    </g>
    <g id="text_20">
     <!-- $n_{recoverd}$ -->
     <defs>
      <path d="M 44.578125 46.390625 
Q 43.21875 47.125 41.453125 47.515625 
Q 39.703125 47.90625 37.703125 47.90625 
Q 30.515625 47.90625 25.140625 42.453125 
Q 19.78125 37.015625 18.015625 27.875 
L 12.5 0 
L 3.515625 0 
L 14.203125 54.6875 
L 23.1875 54.6875 
L 21.484375 46.1875 
Q 25.046875 50.921875 30 53.453125 
Q 34.96875 56 40.578125 56 
Q 42.046875 56 43.453125 55.828125 
Q 44.875 55.671875 46.296875 55.28125 
z
" id="DejaVuSans-Oblique-114"/>
      <path d="M 25.390625 -1.421875 
Q 15.765625 -1.421875 10.171875 4.515625 
Q 4.59375 10.453125 4.59375 20.703125 
Q 4.59375 26.65625 6.515625 32.828125 
Q 8.453125 39.015625 11.53125 43.21875 
Q 16.359375 49.75 22.3125 52.875 
Q 28.265625 56 35.796875 56 
Q 45.125 56 50.859375 50.1875 
Q 56.59375 44.390625 56.59375 35.015625 
Q 56.59375 28.515625 54.6875 22.0625 
Q 52.78125 15.625 49.703125 11.375 
Q 44.921875 4.828125 38.96875 1.703125 
Q 33.015625 -1.421875 25.390625 -1.421875 
z
M 13.921875 21 
Q 13.921875 13.578125 17.015625 9.890625 
Q 20.125 6.203125 26.421875 6.203125 
Q 35.453125 6.203125 41.375 14.078125 
Q 47.3125 21.96875 47.3125 34.078125 
Q 47.3125 41.15625 44.140625 44.765625 
Q 40.96875 48.390625 34.8125 48.390625 
Q 29.734375 48.390625 25.78125 46.015625 
Q 21.828125 43.65625 18.703125 38.8125 
Q 16.40625 35.203125 15.15625 30.5625 
Q 13.921875 25.921875 13.921875 21 
z
" id="DejaVuSans-Oblique-111"/>
      <path d="M 7.171875 54.6875 
L 16.703125 54.6875 
L 24.703125 8.203125 
L 50.875 54.6875 
L 60.40625 54.6875 
L 29.296875 0 
L 17.1875 0 
z
" id="DejaVuSans-Oblique-118"/>
     </defs>
     <g transform="translate(589.36 90.969088)scale(0.1 -0.1)">
      <use xlink:href="#DejaVuSans-Oblique-110"/>
      <use transform="translate(63.378906 -16.40625)scale(0.7)" xlink:href="#DejaVuSans-Oblique-114"/>
      <use transform="translate(92.158203 -16.40625)scale(0.7)" xlink:href="#DejaVuSans-Oblique-101"/>
      <use transform="translate(135.224609 -16.40625)scale(0.7)" xlink:href="#DejaVuSans-Oblique-99"/>
      <use transform="translate(173.710938 -16.40625)scale(0.7)" xlink:href="#DejaVuSans-Oblique-111"/>
      <use transform="translate(216.538086 -16.40625)scale(0.7)" xlink:href="#DejaVuSans-Oblique-118"/>
      <use transform="translate(257.963867 -16.40625)scale(0.7)" xlink:href="#DejaVuSans-Oblique-101"/>
      <use transform="translate(301.030273 -16.40625)scale(0.7)" xlink:href="#DejaVuSans-Oblique-114"/>
      <use transform="translate(329.80957 -16.40625)scale(0.7)" xlink:href="#DejaVuSans-Oblique-100"/>
     </g>
    </g>
    <g id="patch_11">
     <path d="M 561.36 105.647213 
L 581.36 105.647213 
L 581.36 98.647213 
L 561.36 98.647213 
z
" style="fill:#299727;"/>
    </g>
    <g id="text_21">
     <!-- $n_{susceptible}$ -->
     <defs>
      <path d="M 50 53.078125 
L 48.296875 44.578125 
Q 44.734375 46.53125 40.765625 47.5 
Q 36.8125 48.484375 32.625 48.484375 
Q 25.53125 48.484375 21.453125 46.0625 
Q 17.390625 43.65625 17.390625 39.5 
Q 17.390625 34.671875 26.859375 32.078125 
Q 27.59375 31.890625 27.9375 31.78125 
L 30.8125 30.90625 
Q 39.796875 28.421875 42.796875 25.6875 
Q 45.796875 22.953125 45.796875 18.21875 
Q 45.796875 9.515625 38.890625 4.046875 
Q 31.984375 -1.421875 20.796875 -1.421875 
Q 16.453125 -1.421875 11.671875 -0.578125 
Q 6.890625 0.25 1.125 2 
L 2.875 11.28125 
Q 7.8125 8.734375 12.59375 7.421875 
Q 17.390625 6.109375 21.78125 6.109375 
Q 28.375 6.109375 32.5 8.9375 
Q 36.625 11.765625 36.625 16.109375 
Q 36.625 20.796875 25.78125 23.6875 
L 24.859375 23.921875 
L 21.78125 24.703125 
Q 14.9375 26.515625 11.765625 29.46875 
Q 8.59375 32.421875 8.59375 37.015625 
Q 8.59375 45.75 15.15625 50.875 
Q 21.734375 56 33.015625 56 
Q 37.453125 56 41.671875 55.265625 
Q 45.90625 54.546875 50 53.078125 
z
" id="DejaVuSans-Oblique-115"/>
      <path d="M 6.6875 21.6875 
L 13.09375 54.6875 
L 22.125 54.6875 
L 15.71875 22.015625 
Q 15.234375 19.625 15.015625 17.921875 
Q 14.796875 16.21875 14.796875 15.09375 
Q 14.796875 10.9375 17.328125 8.65625 
Q 19.875 6.390625 24.515625 6.390625 
Q 31.734375 6.390625 37 11.265625 
Q 42.28125 16.15625 43.890625 24.421875 
L 49.90625 54.6875 
L 58.890625 54.6875 
L 48.296875 0 
L 39.3125 0 
L 41.109375 8.59375 
Q 37.3125 3.8125 32.0625 1.1875 
Q 26.8125 -1.421875 20.90625 -1.421875 
Q 13.71875 -1.421875 9.71875 2.515625 
Q 5.71875 6.453125 5.71875 13.484375 
Q 5.71875 14.9375 5.953125 17.140625 
Q 6.203125 19.34375 6.6875 21.6875 
z
" id="DejaVuSans-Oblique-117"/>
      <path d="M 49.609375 33.6875 
Q 49.609375 40.875 46.484375 44.671875 
Q 43.359375 48.484375 37.5 48.484375 
Q 33.5 48.484375 29.859375 46.4375 
Q 26.21875 44.390625 23.390625 40.484375 
Q 20.609375 36.625 18.9375 31.15625 
Q 17.28125 25.6875 17.28125 20.3125 
Q 17.28125 13.484375 20.40625 9.796875 
Q 23.53125 6.109375 29.296875 6.109375 
Q 33.546875 6.109375 37.1875 8.109375 
Q 40.828125 10.109375 43.40625 13.921875 
Q 46.1875 17.921875 47.890625 23.34375 
Q 49.609375 28.765625 49.609375 33.6875 
z
M 21.78125 46.390625 
Q 25.390625 51.125 30.296875 53.5625 
Q 35.203125 56 41.21875 56 
Q 49.609375 56 54.25 50.5 
Q 58.890625 45.015625 58.890625 35.109375 
Q 58.890625 27 56 19.65625 
Q 53.125 12.3125 47.703125 6.5 
Q 44.09375 2.640625 39.546875 0.609375 
Q 35.015625 -1.421875 29.984375 -1.421875 
Q 24.171875 -1.421875 20.21875 1 
Q 16.265625 3.421875 14.3125 8.203125 
L 8.6875 -20.796875 
L -0.296875 -20.796875 
L 14.40625 54.6875 
L 23.390625 54.6875 
z
" id="DejaVuSans-Oblique-112"/>
      <path d="M 49.515625 33.40625 
Q 49.515625 40.484375 46.265625 44.484375 
Q 43.015625 48.484375 37.3125 48.484375 
Q 33.15625 48.484375 29.515625 46.453125 
Q 25.875 44.4375 23.1875 40.578125 
Q 20.359375 36.53125 18.71875 31.171875 
Q 17.09375 25.828125 17.09375 20.515625 
Q 17.09375 13.765625 20.28125 9.9375 
Q 23.484375 6.109375 29.109375 6.109375 
Q 33.34375 6.109375 36.953125 8.078125 
Q 40.578125 10.0625 43.3125 13.921875 
Q 46.09375 17.921875 47.796875 23.234375 
Q 49.515625 28.5625 49.515625 33.40625 
z
M 21.578125 46.390625 
Q 24.90625 50.875 29.90625 53.4375 
Q 34.90625 56 40.375 56 
Q 48.78125 56 53.734375 50.328125 
Q 58.6875 44.671875 58.6875 35.015625 
Q 58.6875 27.09375 55.78125 19.671875 
Q 52.875 12.25 47.515625 6.5 
Q 44 2.6875 39.40625 0.625 
Q 34.8125 -1.421875 29.78125 -1.421875 
Q 24.46875 -1.421875 20.5625 1.015625 
Q 16.65625 3.46875 14.203125 8.296875 
L 12.59375 0 
L 3.609375 0 
L 18.40625 75.984375 
L 27.390625 75.984375 
z
" id="DejaVuSans-Oblique-98"/>
      <path d="M 18.3125 75.984375 
L 27.296875 75.984375 
L 12.5 0 
L 3.515625 0 
z
" id="DejaVuSans-Oblique-108"/>
     </defs>
     <g transform="translate(589.36 105.647213)scale(0.1 -0.1)">
      <use xlink:href="#DejaVuSans-Oblique-110"/>
      <use transform="translate(63.378906 -16.40625)scale(0.7)" xlink:href="#DejaVuSans-Oblique-115"/>
      <use transform="translate(99.848633 -16.40625)scale(0.7)" xlink:href="#DejaVuSans-Oblique-117"/>
      <use transform="translate(144.213867 -16.40625)scale(0.7)" xlink:href="#DejaVuSans-Oblique-115"/>
      <use transform="translate(180.683594 -16.40625)scale(0.7)" xlink:href="#DejaVuSans-Oblique-99"/>
      <use transform="translate(219.169922 -16.40625)scale(0.7)" xlink:href="#DejaVuSans-Oblique-101"/>
      <use transform="translate(262.236328 -16.40625)scale(0.7)" xlink:href="#DejaVuSans-Oblique-112"/>
      <use transform="translate(306.669922 -16.40625)scale(0.7)" xlink:href="#DejaVuSans-Oblique-116"/>
      <use transform="translate(334.116211 -16.40625)scale(0.7)" xlink:href="#DejaVuSans-Oblique-105"/>
      <use transform="translate(353.564453 -16.40625)scale(0.7)" xlink:href="#DejaVuSans-Oblique-98"/>
      <use transform="translate(397.998047 -16.40625)scale(0.7)" xlink:href="#DejaVuSans-Oblique-108"/>
      <use transform="translate(417.446289 -16.40625)scale(0.7)" xlink:href="#DejaVuSans-Oblique-101"/>
     </g>
    </g>
   </g>
  </g>
 </g>
 <defs>
  <clipPath id="p928bd21597">
   <rect height="288.8424" width="555.21" x="89.55" y="45.0144"/>
  </clipPath>
 </defs>
</svg>
